<svg xmlns="http://www.w3.org/2000/svg" xmlns:xlink="http://www.w3.org/1999/xlink" viewBox="0 0 28 28">
  <style>
    .B{fill-rule:evenodd}.C{stroke:#000}.D{stroke-linejoin:round}.E{stroke-width:1.769}.F{stroke-linecap:round}.G{stroke-width:1.25}.H{stroke-linecap:butt}.I{stroke-miterlimit:4}.J{stroke-dasharray:none}
  </style>
  <defs>
    <radialGradient id="G" cx="90.208" cy="264.088" r="32.989" fx="90.208" fy="264.088" gradientTransform="matrix(.94132 .33751 -.98599 2.7499 261.779 -483.428)" spreadMethod="reflect" xlink:href="#B"/>
    <radialGradient id="H" cx="148.51" cy="189.075" r="28.557" fx="148.51" fy="189.075" gradientTransform="matrix(1.4605 .29257 -.66066 3.29799 54.614 -468.735)" xlink:href="#B"/>
    <radialGradient id="I" cx="190.253" cy="133.78" r="42.904" fx="190.253" fy="133.78" gradientTransform="matrix(.80171 .81419 -2.86374 2.81989 451.746 -410.501)" xlink:href="#B"/>
    <radialGradient id="J" cx="318.534" cy="70.836" r="66.835" fx="318.534" fy="70.836" gradientTransform="matrix(-.2423 -.40927 1.62915 -.96449 238.445 289.053)" xlink:href="#A"/>
    <radialGradient id="K" cx="224.146" cy="109.503" r="70.887" fx="224.146" fy="109.503" gradientTransform="matrix(1.19317 -1.2178 .3208 .3143 -94.046 401.405)" xlink:href="#A"/>
    <radialGradient id="L" cx="282.988" cy="40.733" r="110.102" fx="282.988" fy="40.733" gradientTransform="matrix(.68197 -.40657 .09517 .15965 98.532 182.905)" xlink:href="#A"/>
    <radialGradient id="M" cx="119.723" cy="269.649" r="71.064" fx="119.723" fy="269.649" gradientTransform="matrix(1.44987 -.95003 .29185 .4454 -146.566 258.39)" xlink:href="#B"/>
    <radialGradient id="N" cx="196.337" cy="186.437" r="57.806" fx="196.337" fy="186.437" gradientTransform="matrix(1.83694 -1.7725 .5728 .59363 -274.34 424.107)" xlink:href="#B"/>
    <linearGradient id="A" gradientUnits="userSpaceOnUse">
      <stop offset="0" stop-color="#fff"/>
      <stop offset=".411" stop-color="#fff"/>
      <stop offset="1" stop-color="#ccc"/>
    </linearGradient>
    <linearGradient id="B" gradientUnits="userSpaceOnUse">
      <stop offset="0" stop-color="#fff"/>
      <stop offset=".169" stop-color="#fff"/>
      <stop offset=".361" stop-color="#ddd"/>
      <stop offset=".617" stop-color="#ccc"/>
    </linearGradient>
    <linearGradient id="E" x1="-70.775" x2="58.687" y1="91.017" y2="243.652" gradientUnits="userSpaceOnUse">
      <stop offset="0" stop-color="#c8c8c8"/>
      <stop offset=".107" stop-color="#fff"/>
      <stop offset=".761" stop-color="#969696"/>
      <stop offset="1" stop-color="#646464"/>
    </linearGradient>
    <linearGradient id="F" x1="58.968" x2="86.394" y1="187.867" y2="220.202" gradientUnits="userSpaceOnUse">
      <stop offset="0" stop-color="#c8c8c8"/>
      <stop offset=".299" stop-color="#fff"/>
      <stop offset=".761" stop-color="#969696"/>
      <stop offset="1" stop-color="#646464"/>
    </linearGradient>
    <path id="O" d="M-136.659 148.816c-12.671 10.747 13.037 33.115 27.119 21.092l39.932-33.869"/>
    <path id="P" d="M-137.827 149.558c33.113 5.559 58.681 31.441 89.372 67.627 24.011 28.309 61.293 69.266 87.931 41.322l63.268-58.377C34.024 184.894-36.005 62.701-59.906 82.973l-77.921 66.584z"/>
    <path id="Q" d="m32.316 264.253 79.196-68.589c9.901-24.161-12.278-35.336-23.718-31.085L7.36 234.936c20.532-17.415 44.056 13.116 24.955 29.317z"/>
    <path id="R" d="M269.895 188.044c42.418-20.395 68.374-41.443 85.651-61.725-18.628-13.326-13.155-12.287 3.619-5.831 7.892 3.038 21.513 3.217 36.794-22.519 11.731-19.757 22.116-28.148 22.116-28.148-13.206 1.477-36.217-2.68 3.418-6.937 17.042-20.931 38.286-39.06 58.307-58.005-38.684 15.766-24.885-1.026 7.138-6.132 21.366-29.227 60.615-44.933 103.746-57.704-29.767 1.054-62.377-.132-75.196 14.275l.201-6.937c-28.924 7.194-97.244 32.007-99.123 37.424-1.444 4.161-6.195 13.456-8.601 22.25-.748-5.338-.579-11.225.569-17.7-20.172 9.15-57.442 37.014-59.072 43.646-.943 3.836-3.392 33.067-1.28 46.063-6.963-10.792-7.923-24.313-9.158-37.71-7.092 7.206-36.231 18.931-30.792 75.527-6.025-6.679-4.828-17.369-6.54-26.444-19.312 24.614-36.346 61.113-35.618 97.41"/>
    <mask id="C">
      <path fill="#fff" stroke="#fff" d="M281.5 87.25C163.117 181.455 64.983 280.997 11.688 391.75H15s6.5-9.5 11.25-13.5S45.5 364.5 45.5 364.5s12.483-37.878 38.292-74.647 61.872-71.771 69.296-79.55l23.036-24.553" class="B G H I J"/>
    </mask>
    <mask id="D">
      <path fill="#fff" stroke="#fff" stroke-width=".625" d="M58.75 323c52.744-25.36 85.017-51.532 106.5-76.75-23.162-16.57-16.357-15.277 4.5-7.25 9.813 3.777 26.75 4 45.75-28 14.586-24.566 27.5-35 27.5-35-16.42 1.836-45.033-3.333 4.25-8.625 21.19-26.026 47.606-48.568 72.5-72.125-48.101 19.604-30.942-1.276 8.875-7.625 26.567-36.342 75.37-55.871 129-71.75-37.013 1.311-77.56-.164-93.5 17.75l.25-8.625c-35.964 8.945-120.915 39.798-123.252 46.533-1.795 5.174-7.703 16.731-10.695 27.666-.929-6.637-.72-13.957.707-22.009-25.082 11.377-71.425 46.024-73.451 54.27-1.172 4.77-4.218 41.116-1.591 57.276-8.658-13.419-9.851-30.232-11.387-46.889-8.819 8.96-45.05 23.539-38.287 93.911-7.491-8.304-6.003-21.597-8.132-32.88C74.276 233.484 53.094 278.867 54 324" class="B D H I J"/>
    </mask>
  </defs>
  <g class="B C" opacity=".3">
    <g class="E" transform="matrix(.083 .0704 -.0704 .083 23.782 .644)">
      <use xlink:href="#O"/>
      <g class="D">
        <use xlink:href="#P"/>
        <use xlink:href="#Q"/>
      </g>
    </g>
    <path d="M14.223 15.785c1.815-.873 2.926-1.774 3.666-2.642-.798-.57-.563-.526.154-.25.338.13.921.138 1.575-.963.502-.846.947-1.205.947-1.205-.565.063-1.55-.115.146-.297.73-.896 1.639-1.672 2.496-2.482-1.656.674-1.065-.044.305-.263.915-1.25 2.594-1.923 4.44-2.47-1.274.046-2.67-.005-3.218.611l.009-.296c-1.238.308-4.162 1.37-4.243 1.601-.061.178-.265.576-.368.953a2.417 2.417 0 0 1 .025-.758c-.864.392-2.459 1.584-2.529 1.868-.04.164-.145 1.415-.054 1.972-.298-.462-.34-1.041-.392-1.614-.304.308-1.551.81-1.318 3.232-.258-.286-.207-.743-.28-1.132-.827 1.054-1.556 2.616-1.525 4.17" class="D G"/>
  </g>
  <g class="C">
    <g fill="#b0b0b0" transform="matrix(.083 .0704 -.0704 .083 23.012 -.126)">
      <use class="B E" xlink:href="#O"/>
      <path stroke-width="2.078" d="M-123.159 160.271c-3.568-2.87.23-4.124 3.2-2.573 3.545 1.853 4.49 5.491 2.868 7.455-2.144 2.597-7.51 2.079-11.372-.617-4.62-3.225-5.803-8.264-3.045-10.98 3.153-3.105 10.093-2.348 15.056 1.32 5.522 4.08 6.89 10.231 3.352 13.487-3.865 3.557-12.065 2.617-17.892-1.794-6.284-4.758-7.813-11.834-3.652-15.536 4.447-3.956 13.718-2.864 20.274 2.167 6.955 5.336 8.628 13.214 3.933 17.306-4.949 4.315-15.164 3.091-22.365-2.482-7.557-5.849-9.36-14.442-4.197-18.885a18.171 12.299 27.39 0 1 .637-.503" class="F" opacity=".5"/>
    </g>
    <g class="B D E" transform="matrix(.083 .0704 -.0704 .083 23.012 -.126)">
      <use fill="url(#E)" xlink:href="#P"/>
      <use fill="url(#F)" xlink:href="#Q"/>
    </g>
    <g fill="none" class="F E">
      <path d="M7.144 21.815c.066-.493.556-.27.61.082.064.42-.327.752-.722.757-.522.007-.916-.469-.898-.974.021-.604.574-1.054 1.165-1.018.675.04 1.173.661 1.124 1.324-.055.738-.737 1.281-1.464 1.22-.795-.067-1.379-.804-1.307-1.59.077-.848.865-1.469 1.705-1.387.896.086 1.552.921 1.463 1.81-.095.944-.975 1.632-1.91 1.535-.987-.103-1.707-1.024-1.603-2.004.11-1.029 1.071-1.778 2.093-1.667a1.93 1.93 0 0 1 .12.017" opacity=".5"/>
      <path d="M7.184 19.885c-1.328 0-2.255 1.371-1.743 2.533"/>
    </g>
  </g>
  <path d="m3.304 4.334.06-.072h.029c.039 0 .066-.012.08-.034s.025-.066.03-.13l.018-.251a.282.282 0 0 1 .078-.183.229.229 0 0 1 .17-.072c.03 0 .067.01.109.032l-.01.122h-.03l-.002-.021c-.007-.061-.043-.091-.105-.091s-.096.052-.104.158l-.016.225c-.004.067-.016.119-.036.155s-.052.068-.1.096l.275.005a.354.354 0 0 0 .2-.055l-.003.037c-.04.04-.071.066-.093.077s-.05.017-.089.017l-.46-.015zm.912.012c-.043 0-.08-.017-.113-.05s-.053-.075-.06-.125c-.011-.094.013-.18.074-.26s.133-.12.217-.12a.164.164 0 0 1 .118.049.205.205 0 0 1 .06.125.343.343 0 0 1-.073.264.274.274 0 0 1-.223.117zm.05-.042c.048 0 .087-.031.116-.094s.037-.134.027-.216c-.014-.108-.054-.162-.12-.162-.046 0-.084.032-.113.096s-.039.136-.029.217c.014.106.054.159.12.159zm.422.036.017-.15.017-.24a.319.319 0 0 0-.001-.062c-.004-.029-.015-.043-.035-.043-.034 0-.08.037-.134.111l.003-.044c.065-.08.125-.121.18-.121.048 0 .075.027.082.08a.398.398 0 0 1 0 .08l-.007.117h.006c.028-.081.066-.148.112-.2s.091-.077.136-.077a.14.14 0 0 1 .063.015l-.054.088a.107.107 0 0 0-.051-.019c-.064 0-.137.094-.218.28l-.013.179-.103.006zm.934-.14-.003.038c-.094.072-.178.108-.25.108a.163.163 0 0 1-.12-.049.207.207 0 0 1-.059-.125c-.012-.092.012-.179.072-.26s.13-.121.21-.121a.103.103 0 0 1 .074.029c.02.02.033.045.037.076.008.063-.017.117-.075.162s-.132.067-.22.067l.002.022c.012.095.053.143.123.143.06 0 .13-.03.209-.09zm-.337-.105c.072-.006.127-.025.164-.057s.052-.073.045-.123c-.006-.05-.027-.075-.063-.075-.04 0-.074.026-.104.078s-.044.111-.042.177zm.502.245.016-.15.017-.242.002-.074c-.002-.02-.013-.03-.032-.03-.032 0-.076.036-.132.107l.003-.045c.06-.077.12-.115.177-.115.047 0 .074.025.08.074a.477.477 0 0 1 0 .083l-.01.12h.008c.03-.084.067-.152.11-.202s.086-.075.127-.075c.022 0 .042.009.059.026s.027.039.03.065a.334.334 0 0 1 0 .067l-.008.12h.007c.026-.082.06-.149.103-.2s.084-.078.125-.078c.058 0 .09.03.098.092a.36.36 0 0 1 .001.067l-.017.239-.001.073c.002.02.013.031.032.031.033 0 .077-.036.132-.107l-.003.045c-.06.077-.12.115-.177.115-.047 0-.074-.025-.08-.074a.485.485 0 0 1 0-.083l.018-.239a.254.254 0 0 0 0-.046c-.003-.027-.015-.041-.035-.041-.057 0-.126.098-.209.294l-.014.177-.095.006.027-.389a.263.263 0 0 0 0-.046c-.003-.028-.015-.042-.034-.042-.025 0-.057.029-.097.086s-.078.128-.113.212l-.013.173-.102.006zm1.639-.154-.003.045c-.062.077-.12.115-.178.115-.047 0-.073-.024-.08-.074a.471.471 0 0 1 .001-.082l.012-.17.001-.096c-.003-.028-.015-.041-.037-.041a.306.306 0 0 0-.076.017l.002-.03.229-.079-.017.157-.017.241-.002.073c.003.02.014.031.033.031.032 0 .076-.035.132-.107zm-.241-.48.024-.066.127-.09-.03.09-.121.066zm.037.945.057-.07a.256.256 0 0 0 .107.024c.083 0 .13-.069.14-.206l.026-.38v-.095c-.003-.028-.015-.041-.036-.041a.305.305 0 0 0-.077.017l.003-.03.228-.079-.017.158-.008.12h.008c.027-.083.062-.15.108-.2s.09-.078.135-.078c.07 0 .11.043.12.13.014.1-.014.195-.082.285s-.146.135-.235.135a.567.567 0 0 1-.056-.005l-.017-.002c-.012.105-.047.186-.103.242s-.131.084-.225.084a.362.362 0 0 1-.076-.01zm.409-.386a.326.326 0 0 0 .125.027c.06 0 .102-.038.128-.113a.53.53 0 0 0 .032-.239c-.006-.05-.025-.077-.055-.077-.028 0-.064.03-.109.089a.865.865 0 0 0-.113.202l-.008.111zm.455.052.055-.066a.244.244 0 0 0 .136.047c.027 0 .049-.007.066-.022s.023-.031.02-.052c-.002-.023-.025-.055-.067-.095l-.05-.049c-.05-.047-.077-.087-.08-.12-.006-.044.01-.083.047-.117s.084-.052.138-.052c.03 0 .064.006.102.019l-.008.108h-.03v-.009a.047.047 0 0 0 0-.01c-.006-.044-.037-.066-.094-.066-.064 0-.092.026-.086.076.004.026.027.06.07.103l.046.045c.05.049.077.09.081.12.006.045-.012.084-.054.118s-.093.051-.152.051a.413.413 0 0 1-.14-.029zm.903-.249h-.008c-.069.186-.147.278-.235.278-.052 0-.083-.03-.09-.092a.346.346 0 0 1-.001-.066l.017-.24.002-.074c-.003-.02-.014-.03-.033-.03-.032 0-.076.036-.132.107l.003-.045c.061-.077.12-.115.177-.115.048 0 .074.024.08.073a.485.485 0 0 1 0 .083l-.018.241a.272.272 0 0 0 0 .046c.003.026.015.04.034.04.024 0 .058-.03.1-.09s.079-.127.11-.206l.013-.175.103-.006-.017.15-.017.242-.002.073c.003.02.014.031.033.031.032 0 .076-.036.132-.107l-.003.045c-.062.077-.12.115-.177.115-.048 0-.075-.025-.08-.074a.47.47 0 0 1 0-.083l.01-.12zm.348.272.016-.15.017-.242.002-.074c-.002-.02-.013-.03-.032-.03-.032 0-.076.036-.132.107l.003-.045c.06-.077.12-.115.177-.115.047 0 .074.025.08.074a.477.477 0 0 1 0 .083l-.01.12h.008c.03-.084.067-.152.11-.202s.086-.075.127-.075c.022 0 .042.009.059.026s.027.039.03.065a.334.334 0 0 1 0 .067l-.008.12h.007c.026-.082.06-.149.103-.2s.084-.078.125-.078c.058 0 .09.03.098.092a.36.36 0 0 1 .001.067l-.017.239-.001.073c.002.02.013.031.032.031.033 0 .077-.036.132-.107l-.003.045c-.06.077-.12.115-.177.115-.047 0-.074-.025-.08-.074a.485.485 0 0 1 0-.083l.017-.239a.254.254 0 0 0 .001-.046c-.003-.027-.015-.041-.035-.041-.057 0-.127.098-.209.294l-.014.177-.095.006.027-.389a.263.263 0 0 0 0-.046c-.003-.028-.015-.042-.034-.042-.025 0-.057.029-.098.086s-.077.128-.112.212l-.013.173-.102.006zM4.603 5.97h-.01c-.026.082-.062.149-.107.2s-.09.078-.135.078c-.069 0-.109-.043-.12-.13a.426.426 0 0 1 .137-.346c.032-.029.066-.048.1-.058s.086-.015.154-.015c.011-.065.025-.114.041-.148s.042-.066.076-.096a.3.3 0 0 1 .204-.076.367.367 0 0 1 .09.01l-.059.07a.28.28 0 0 0-.102-.026c-.052 0-.089.02-.11.057s-.036.11-.044.214l-.027.387-.002.072c.002.021.013.032.033.032.032 0 .076-.036.132-.108l-.003.046c-.062.076-.12.115-.177.115-.048 0-.074-.025-.08-.074a.485.485 0 0 1 0-.083l.009-.12zm.014-.196a.319.319 0 0 0-.126-.027c-.059 0-.101.038-.127.113a.53.53 0 0 0-.033.239c.007.05.025.076.055.076.028 0 .065-.03.11-.088s.083-.126.113-.202l.008-.11zm.457.474c-.043 0-.08-.017-.113-.05s-.053-.075-.06-.125c-.011-.094.013-.181.074-.26s.133-.12.217-.12a.164.164 0 0 1 .118.049.205.205 0 0 1 .06.124.343.343 0 0 1-.072.264.274.274 0 0 1-.224.118zm.05-.043c.048 0 .087-.03.116-.093s.037-.134.027-.216c-.014-.108-.054-.162-.12-.162-.046 0-.084.032-.113.096s-.039.136-.028.216c.013.106.053.16.118.16zm.657-.12-.003.045c-.067.078-.128.118-.183.118-.047 0-.073-.025-.08-.075a.444.444 0 0 1 0-.083l.024-.337c.008-.118.04-.21.098-.276s.131-.098.224-.098a.363.363 0 0 1 .09.01l-.058.07a.266.266 0 0 0-.101-.026c-.052 0-.089.019-.11.057s-.036.11-.043.215l-.027.386-.002.073c.002.02.013.031.033.031.022 0 .06-.029.115-.087l.023-.023zm.216.163c-.043 0-.08-.017-.113-.05s-.053-.075-.059-.125c-.012-.094.012-.181.073-.26s.134-.12.217-.12a.164.164 0 0 1 .119.049.205.205 0 0 1 .06.124.343.343 0 0 1-.073.264.274.274 0 0 1-.224.118zm.05-.043c.049 0 .087-.03.116-.093s.038-.134.027-.216c-.014-.108-.054-.162-.12-.162-.046 0-.084.032-.113.096s-.038.136-.028.216c.013.106.053.16.118.16zm.422.036.017-.15.017-.24a.315.315 0 0 0 0-.062c-.004-.028-.016-.042-.036-.042-.034 0-.079.037-.134.11l.004-.043c.065-.081.125-.122.18-.122.047 0 .074.027.08.081a.393.393 0 0 1 .002.08l-.008.117h.006c.028-.081.066-.148.112-.2s.092-.077.136-.077c.022 0 .044.005.063.015l-.054.088a.107.107 0 0 0-.051-.019c-.064 0-.136.093-.218.28l-.013.179-.103.005zm.789-.022.056-.066a.244.244 0 0 0 .135.046c.027 0 .049-.007.066-.02s.024-.033.02-.053c-.002-.024-.025-.055-.067-.095l-.05-.05c-.05-.047-.077-.086-.08-.118-.006-.045.01-.084.047-.119s.084-.051.138-.051c.03 0 .064.006.102.018l-.008.108h-.03v-.008a.047.047 0 0 0 0-.01c-.006-.044-.037-.066-.094-.066-.063 0-.092.025-.086.076.004.026.027.06.07.103l.046.044c.05.05.077.09.081.122.006.043-.012.082-.054.116s-.093.052-.152.052a.413.413 0 0 1-.14-.029zm.834-.132-.003.046c-.061.076-.12.115-.177.115-.047 0-.074-.025-.08-.074a.48.48 0 0 1 0-.082l.013-.17.001-.097c-.004-.027-.016-.04-.037-.04a.306.306 0 0 0-.077.016l.002-.03.23-.078-.018.156-.017.242-.002.072c.003.021.014.032.033.032.033 0 .077-.036.132-.108zm-.24-.48.024-.066.126-.09-.03.09-.12.067zm.363.134h-.112l.029-.036h.085l.01-.139.098-.024-.011.163h.184l-.035.043-.112-.007h-.04l-.024.335a.434.434 0 0 0 0 .073c.003.025.016.038.039.038.035 0 .08-.026.134-.078l-.003.045c-.055.063-.112.094-.17.094-.056 0-.088-.03-.095-.092a.463.463 0 0 1 0-.087l.023-.328zm1.076.23h-.009c-.026.08-.062.148-.107.2s-.09.077-.136.077c-.069 0-.109-.043-.12-.13a.389.389 0 0 1 .078-.278.312.312 0 0 1 .268-.141l.147.006-.016.144-.017.242-.001.073c.002.02.013.031.032.031.033 0 .077-.036.132-.108l-.003.046c-.061.076-.12.115-.177.115-.048 0-.074-.025-.08-.074a.485.485 0 0 1 0-.083l.009-.12zm.014-.197a.323.323 0 0 0-.125-.027c-.06 0-.102.038-.128.113a.534.534 0 0 0-.032.239c.006.05.025.077.055.077.028 0 .064-.03.11-.089a.839.839 0 0 0 .112-.201l.008-.111zm.34.467.017-.15.017-.242.002-.073c-.003-.02-.014-.03-.033-.03-.032 0-.076.035-.132.107l.003-.045c.061-.077.12-.115.177-.115.047 0 .074.024.08.074a.477.477 0 0 1 0 .082l-.009.121h.007c.03-.085.068-.152.11-.202s.086-.075.128-.075c.022 0 .041.008.058.026s.027.038.03.064a.334.334 0 0 1 0 .068l-.007.119h.007c.025-.082.06-.148.102-.2s.084-.077.126-.077c.057 0 .09.03.098.092a.36.36 0 0 1 0 .067l-.016.239-.002.073c.003.02.014.03.033.03.032 0 .076-.035.132-.107l-.003.046c-.062.076-.12.115-.178.115-.047 0-.074-.025-.08-.074a.485.485 0 0 1 .001-.083l.017-.239a.254.254 0 0 0 0-.047c-.003-.027-.015-.04-.035-.04-.057 0-.126.098-.209.294l-.014.177-.095.005.027-.388a.263.263 0 0 0 0-.047c-.003-.027-.014-.041-.034-.041-.024 0-.057.028-.097.086s-.078.128-.113.211l-.013.174-.102.005zm1.402-.139-.002.038c-.095.072-.179.108-.252.108a.163.163 0 0 1-.119-.049.207.207 0 0 1-.059-.126c-.012-.092.012-.178.072-.26s.13-.12.21-.12a.103.103 0 0 1 .074.029c.02.02.033.045.037.076.008.063-.017.116-.075.161s-.132.068-.22.068l.002.022c.012.095.053.143.123.143.06 0 .13-.03.21-.09zm-.337-.105c.072-.006.127-.025.164-.057s.052-.073.046-.123c-.007-.05-.028-.075-.064-.075-.04 0-.074.026-.104.078s-.044.11-.042.177zm.528-.256h-.112l.03-.036h.085l.01-.139.098-.024-.012.163h.185l-.035.043-.113-.007h-.04l-.023.335a.434.434 0 0 0 0 .073c.003.025.016.038.038.038.036 0 .08-.026.135-.078l-.003.045c-.056.063-.112.094-.17.094-.056 0-.088-.03-.096-.092a.463.463 0 0 1 0-.087l.023-.328zm.356.408.089-.07.084.095c.005.066-.01.117-.042.153s-.082.053-.147.053l.024-.03c.05-.005.076-.04.078-.102l-.086-.1zM5.062 8.005l-.003.038c-.097.072-.18.108-.249.108-.047 0-.087-.016-.12-.048s-.052-.074-.06-.126c-.011-.095.013-.182.075-.262s.135-.119.221-.119c.038 0 .077.009.117.025l-.017.126h-.03V7.74a.175.175 0 0 0 0-.034c-.005-.045-.039-.068-.1-.068-.057 0-.1.031-.13.092s-.04.139-.029.231c.012.088.05.133.116.133.063 0 .132-.03.209-.09zm.288.146c-.042 0-.08-.016-.113-.05s-.052-.075-.059-.125c-.012-.094.013-.18.074-.26s.133-.12.217-.12a.164.164 0 0 1 .118.05.205.205 0 0 1 .06.124.343.343 0 0 1-.073.264.274.274 0 0 1-.223.117zm.05-.042c.049 0 .088-.031.116-.093s.038-.134.028-.217c-.014-.108-.054-.161-.12-.161-.047 0-.084.032-.114.096s-.038.136-.028.216c.014.106.053.159.119.159zm.416.036.017-.15.017-.242.002-.073c-.003-.02-.014-.03-.033-.03-.032 0-.076.035-.132.106l.003-.045c.061-.076.12-.115.178-.115.046 0 .073.025.08.074a.488.488 0 0 1-.001.083l-.009.12h.008c.03-.083.067-.15.112-.2s.09-.077.134-.077c.053 0 .084.03.091.09a.36.36 0 0 1 .001.07l-.017.238-.002.074c.003.02.014.03.033.03.033 0 .077-.035.133-.107l-.004.045c-.061.077-.12.115-.177.115-.047 0-.074-.024-.08-.073a.485.485 0 0 1 0-.084l.018-.24a.23.23 0 0 0 0-.046c-.004-.027-.015-.04-.035-.04-.062 0-.136.1-.221.297l-.013.174-.103.006zm.611-.022.056-.066a.244.244 0 0 0 .136.046c.027 0 .049-.007.065-.021s.024-.032.021-.053c-.003-.023-.025-.055-.067-.095l-.05-.049c-.05-.047-.077-.087-.081-.119-.006-.044.01-.084.048-.118s.083-.052.137-.052a.36.36 0 0 1 .103.019l-.008.108h-.031v-.018c-.006-.044-.037-.066-.093-.066-.064 0-.092.025-.086.076.003.026.027.06.07.102l.046.045c.05.05.077.09.08.121.006.044-.012.083-.054.117s-.092.051-.151.051a.413.413 0 0 1-.14-.028zm.93-.117-.002.037c-.095.072-.179.108-.252.108a.163.163 0 0 1-.119-.048.207.207 0 0 1-.059-.126c-.012-.092.012-.179.072-.26s.13-.121.21-.121a.103.103 0 0 1 .074.03c.02.019.033.044.037.076.008.062-.017.116-.075.161s-.132.067-.22.067l.002.022c.012.096.053.143.123.143.06 0 .13-.03.21-.09zM7.02 7.9c.072-.006.127-.025.164-.056s.052-.073.046-.124c-.007-.05-.028-.075-.064-.075-.04 0-.074.026-.104.078s-.044.111-.042.177zm.878.105-.003.038c-.097.072-.18.108-.249.108-.047 0-.087-.016-.12-.048s-.052-.074-.06-.126c-.011-.095.013-.182.075-.262s.135-.119.221-.119c.038 0 .077.009.117.025l-.017.126h-.03V7.74a.175.175 0 0 0 0-.034c-.005-.045-.039-.068-.1-.068-.057 0-.1.031-.13.092s-.04.139-.029.231c.012.088.05.133.116.133.063 0 .132-.03.209-.09zm.198-.36h-.112l.03-.037h.084l.01-.138.098-.025-.01.163h.183l-.034.043-.113-.007h-.04l-.023.335a.434.434 0 0 0-.001.073c.003.026.016.039.04.039.034 0 .079-.026.133-.078l-.003.045c-.055.062-.112.093-.17.093-.056 0-.087-.03-.095-.091a.463.463 0 0 1 0-.087l.023-.329zm.806.36-.002.038c-.095.072-.179.108-.252.108a.163.163 0 0 1-.118-.048.207.207 0 0 1-.06-.126c-.012-.092.012-.179.073-.26s.13-.121.21-.121a.103.103 0 0 1 .074.03c.02.019.032.044.036.076.008.062-.017.116-.075.161s-.131.067-.22.067l.002.022c.012.096.053.143.123.143.06 0 .13-.03.21-.09zM8.565 7.9c.072-.006.127-.025.164-.056s.052-.073.046-.124c-.007-.05-.028-.075-.064-.075-.04 0-.074.026-.104.078s-.044.111-.042.177zm.529-.256h-.112l.029-.036h.085l.01-.138.098-.025-.011.163h.184l-.035.043-.113-.007h-.04l-.023.335a.434.434 0 0 0 0 .073c.003.026.016.039.039.039.035 0 .08-.026.134-.078l-.003.045c-.055.062-.112.093-.17.093-.056 0-.088-.03-.096-.091a.463.463 0 0 1 0-.087l.024-.329zm.78.23h-.009c-.069.185-.147.277-.235.277-.052 0-.082-.03-.09-.092a.346.346 0 0 1 0-.066l.016-.24.002-.074c-.003-.02-.014-.03-.033-.03-.032 0-.076.036-.132.107l.003-.045c.061-.076.12-.115.177-.115.048 0 .074.025.08.074a.485.485 0 0 1 0 .083l-.018.24a.272.272 0 0 0 0 .046c.003.027.015.04.034.04.024 0 .058-.03.1-.089s.079-.128.11-.206l.013-.176.103-.006-.017.15-.017.242-.002.074c.003.02.014.03.033.03.032 0 .076-.035.132-.107l-.003.045c-.061.077-.12.115-.177.115-.048 0-.074-.024-.08-.074a.47.47 0 0 1 0-.083l.01-.12zm.353.271.017-.15.017-.24a.315.315 0 0 0 0-.062c-.005-.028-.016-.042-.036-.042-.034 0-.079.037-.134.11l.004-.043c.064-.081.125-.122.18-.122.047 0 .074.027.08.08a.398.398 0 0 1 .002.08l-.008.118h.006c.028-.082.066-.148.112-.2s.092-.078.136-.078c.023 0 .044.006.063.016l-.054.088a.107.107 0 0 0-.051-.02c-.064 0-.136.094-.218.28l-.013.18-.103.005zm-5.29 1.631h-.01c-.026.082-.062.149-.107.2s-.09.078-.136.078c-.069 0-.109-.043-.12-.129a.389.389 0 0 1 .078-.279.312.312 0 0 1 .269-.141l.147.006-.017.145-.017.241-.001.074c.002.02.013.03.032.03.033 0 .077-.036.132-.107l-.003.045c-.061.077-.12.115-.177.115-.047 0-.074-.024-.08-.074a.485.485 0 0 1 0-.083l.01-.12zm.013-.195a.323.323 0 0 0-.125-.028c-.06 0-.102.038-.128.113a.534.534 0 0 0-.032.239c.007.051.025.077.055.077.028 0 .065-.03.11-.088s.082-.127.112-.202l.008-.111zm.655.195h-.009c-.027.083-.063.15-.108.2s-.09.078-.134.078c-.07 0-.11-.043-.12-.13-.008-.058 0-.12.026-.184s.063-.118.11-.162c.033-.029.066-.048.1-.058s.086-.015.155-.015c.01-.065.024-.114.04-.148s.043-.066.077-.095a.3.3 0 0 1 .203-.077.367.367 0 0 1 .09.01l-.058.07a.28.28 0 0 0-.102-.026c-.052 0-.09.02-.11.057s-.037.11-.044.214l-.027.387-.003.073c.003.02.014.031.033.031.033 0 .077-.036.132-.107l-.003.045c-.061.077-.12.115-.177.115-.047 0-.074-.024-.08-.074a.485.485 0 0 1 0-.083l.01-.12zm.014-.195a.319.319 0 0 0-.126-.028c-.059 0-.101.038-.127.113a.53.53 0 0 0-.033.239c.007.051.025.077.056.077.028 0 .064-.03.11-.089s.082-.126.112-.202l.008-.11zm.622.313-.003.045c-.062.077-.12.115-.177.115-.047 0-.074-.024-.08-.074a.471.471 0 0 1 0-.082l.012-.17.002-.096c-.004-.028-.016-.041-.037-.041a.305.305 0 0 0-.077.017l.002-.03.23-.079-.018.157-.017.241-.002.073c.003.02.014.031.033.031.032 0 .076-.035.132-.107zm-.24-.48.023-.066.127-.09-.03.09-.12.066zm.036.945.057-.07a.26.26 0 0 0 .107.024c.083 0 .13-.068.14-.206l.026-.379v-.096c-.003-.028-.015-.041-.036-.041a.305.305 0 0 0-.077.017l.003-.03.228-.079-.017.158-.008.12h.008c.027-.083.062-.15.108-.2s.09-.078.135-.078c.07 0 .11.043.12.13.014.1-.014.195-.082.285s-.146.135-.235.135a.569.569 0 0 1-.056-.005l-.017-.002c-.012.105-.047.186-.103.242s-.131.084-.225.084a.362.362 0 0 1-.076-.01zm.409-.386a.326.326 0 0 0 .126.027c.059 0 .101-.038.127-.113a.53.53 0 0 0 .032-.239c-.006-.05-.025-.076-.055-.076-.028 0-.064.029-.109.088a.865.865 0 0 0-.113.202l-.008.111zm.838-.08-.003.046c-.062.077-.121.115-.178.115-.047 0-.073-.024-.08-.074a.471.471 0 0 1 0-.082l.013-.17.001-.096C7.034 9.605 7.021 9.59 7 9.59a.306.306 0 0 0-.076.017l.002-.03.229-.079-.017.157-.017.241-.002.073c.002.02.013.031.033.031.032 0 .076-.035.131-.107zm-.241-.479.024-.066.126-.09-.03.09-.12.066zm.235.611.056-.066a.244.244 0 0 0 .136.047c.027 0 .049-.007.065-.021s.024-.032.021-.053c-.003-.023-.025-.055-.067-.095l-.05-.049c-.05-.047-.077-.087-.081-.119-.006-.044.01-.084.048-.118s.083-.052.137-.052c.03 0 .064.006.103.019l-.008.108h-.03v-.018c-.006-.045-.038-.067-.094-.067-.064 0-.092.026-.086.077.003.025.027.06.07.102l.046.045c.05.05.077.09.08.121.006.044-.012.083-.054.117s-.092.051-.151.051a.413.413 0 0 1-.14-.029zm.835-.131-.003.045c-.062.077-.12.115-.178.115-.047 0-.073-.024-.08-.074a.48.48 0 0 1 .001-.082l.012-.17.002-.096c-.004-.027-.016-.041-.038-.041a.306.306 0 0 0-.076.017l.002-.03.229-.079-.017.157-.017.241-.002.073c.003.02.014.031.033.031.032 0 .076-.035.132-.107zm-.241-.48.024-.066.127-.09-.03.09-.121.066zm.713.494-.003.038c-.098.072-.18.108-.25.108-.046 0-.086-.016-.12-.048s-.052-.074-.058-.126c-.013-.095.012-.182.074-.262s.135-.119.221-.119c.038 0 .077.009.116.025l-.016.126h-.03v-.007a.175.175 0 0 0 0-.034c-.005-.045-.039-.068-.1-.068-.057 0-.1.03-.131.092s-.04.138-.028.231c.011.088.05.132.116.132.063 0 .132-.03.209-.089zm.453-.014-.003.045c-.062.077-.12.115-.177.115-.047 0-.074-.024-.08-.074a.48.48 0 0 1 0-.082l.012-.17.002-.096c-.004-.027-.016-.041-.037-.041a.306.306 0 0 0-.077.017l.002-.03.23-.079-.018.157-.017.241-.002.073c.003.02.014.031.033.031.032 0 .076-.035.132-.107zm-.24-.48.023-.066.127-.09-.03.09-.12.066zm.336.634.016-.15.017-.242.002-.074c-.002-.02-.013-.03-.032-.03-.032 0-.076.036-.132.107l.003-.045c.06-.076.12-.115.177-.115.047 0 .074.025.08.074a.488.488 0 0 1 0 .083l-.01.12h.008c.03-.083.068-.15.112-.2s.09-.077.134-.077c.054 0 .084.03.092.09a.361.361 0 0 1 0 .07l-.016.238-.002.074c.002.02.013.03.033.03.032 0 .076-.035.132-.107l-.003.045c-.062.077-.12.115-.178.115-.047 0-.073-.024-.08-.074a.485.485 0 0 1 .001-.083l.017-.24a.23.23 0 0 0 0-.046c-.003-.027-.015-.04-.035-.04-.062 0-.135.099-.22.297l-.014.174-.102.006zm.73-.014c-.041-.02-.066-.059-.073-.118a.378.378 0 0 1 .081-.28.313.313 0 0 1 .266-.13l.138.005-.017.145-.008.113-.007.132c-.003.116-.011.196-.023.241s-.04.089-.08.132a.293.293 0 0 1-.22.094c-.058 0-.106-.011-.145-.034s-.06-.051-.065-.087c-.009-.072.042-.143.153-.213zm.304-.452a.287.287 0 0 0-.12-.028.116.116 0 0 0-.103.058c-.02.03-.036.076-.048.135s-.015.111-.01.154c.007.046.024.069.053.069.064 0 .138-.093.22-.279l.008-.109zm-.014.195h-.008c-.025.076-.058.138-.1.184s-.09.074-.142.082c-.078.06-.113.114-.107.165.004.032.024.06.058.083s.075.035.12.035c.059 0 .102-.023.13-.069s.043-.117.044-.215l.005-.266zm1.017.132-.002.037c-.095.072-.178.108-.251.108a.163.163 0 0 1-.12-.048.207.207 0 0 1-.059-.126c-.012-.092.013-.179.073-.26s.13-.121.21-.121a.103.103 0 0 1 .074.03c.02.019.032.044.036.075.008.063-.017.117-.075.162s-.131.067-.22.067l.002.022c.013.096.053.143.123.143.06 0 .13-.03.21-.09zm-.337-.106c.072-.006.127-.025.164-.057s.052-.072.046-.123c-.007-.05-.028-.075-.064-.075-.04 0-.074.026-.104.078s-.044.111-.042.177zm.743.088-.003.045c-.066.079-.128.118-.183.118-.046 0-.073-.025-.079-.074a.438.438 0 0 1 0-.083l.023-.338c.009-.118.041-.21.098-.275s.131-.099.225-.099a.363.363 0 0 1 .089.01l-.058.07a.266.266 0 0 0-.101-.025c-.052 0-.088.019-.11.056s-.035.11-.043.215l-.027.386-.002.074c.003.02.014.03.033.03.022 0 .06-.028.116-.086l.022-.023zm.381.003-.003.045c-.061.077-.12.115-.177.115-.047 0-.074-.024-.08-.073a.48.48 0 0 1 0-.083l.012-.17.002-.096c-.004-.027-.016-.041-.037-.041a.306.306 0 0 0-.077.017l.002-.03.23-.079-.018.157-.017.241-.002.073c.003.02.014.032.033.032.032 0 .076-.036.132-.108zm-.24-.48.024-.066.126-.09-.03.09-.12.066zm.363.133h-.112l.029-.036h.085l.01-.138.098-.025-.011.163h.184l-.035.043-.112-.007h-.04l-.024.335a.434.434 0 0 0 0 .073c.003.026.016.039.039.039.035 0 .08-.026.134-.078l-.003.044c-.055.063-.112.094-.17.094-.056 0-.088-.03-.095-.092a.463.463 0 0 1 0-.087l.023-.328zm.356.409.088-.07.084.095c.005.066-.01.117-.042.152s-.082.054-.147.054l.024-.03c.05-.005.076-.04.078-.103l-.085-.099zm-7.673 1.972.056-.066a.244.244 0 0 0 .136.046c.027 0 .049-.007.065-.02s.024-.033.021-.053c-.003-.024-.025-.055-.067-.095l-.05-.05c-.05-.047-.077-.086-.081-.118-.006-.045.01-.084.048-.119s.083-.051.137-.051c.03 0 .064.006.103.018l-.008.108h-.03v-.018c-.006-.044-.038-.066-.094-.066-.064 0-.093.025-.086.076.003.026.027.06.07.103l.046.044c.05.05.077.09.08.122.006.043-.012.082-.054.116s-.092.052-.151.052a.413.413 0 0 1-.14-.029zm.93-.117-.002.038c-.095.072-.179.108-.252.108-.046 0-.086-.016-.119-.049s-.052-.074-.059-.126c-.012-.092.012-.178.072-.26s.13-.12.21-.12a.103.103 0 0 1 .074.029c.02.02.033.045.037.076.008.063-.017.116-.075.161s-.132.068-.22.068l.002.022c.012.095.053.143.123.143.06 0 .13-.03.21-.09zm-.337-.106c.072-.005.127-.024.164-.056s.052-.073.046-.123c-.007-.05-.028-.075-.064-.075-.04 0-.074.026-.104.078s-.044.11-.042.176zm.817-.026h-.01c-.026.082-.062.15-.107.2s-.09.078-.135.078c-.069 0-.11-.043-.12-.13a.438.438 0 0 1 .137-.346c.032-.029.065-.048.1-.058s.086-.015.154-.015c.011-.065.025-.114.041-.148s.042-.066.076-.096a.3.3 0 0 1 .204-.076.37.37 0 0 1 .09.01l-.059.07a.28.28 0 0 0-.102-.026c-.052 0-.089.02-.11.057s-.036.11-.044.214l-.027.387-.002.072c.002.021.013.032.032.032.033 0 .077-.036.133-.108l-.004.046c-.06.076-.12.115-.177.115-.047 0-.074-.025-.08-.074a.485.485 0 0 1 .001-.083l.009-.12zm.014-.196a.319.319 0 0 0-.126-.027c-.06 0-.102.038-.128.113a.53.53 0 0 0-.032.239c.007.05.025.077.055.077.028 0 .065-.03.11-.089s.083-.126.113-.202l.008-.11zm.987.196h-.009c-.027.082-.063.15-.108.2s-.09.078-.134.078c-.07 0-.11-.043-.12-.13-.008-.058 0-.12.026-.184s.062-.118.11-.162c.032-.029.066-.048.1-.058s.086-.015.154-.015c.011-.065.025-.114.042-.148s.041-.066.076-.096a.3.3 0 0 1 .203-.076c.033 0 .062.003.09.01l-.058.07a.28.28 0 0 0-.102-.026c-.053 0-.09.02-.11.057s-.037.11-.044.214l-.028.387-.002.072c.003.021.014.032.033.032.032 0 .077-.036.132-.108l-.003.046c-.061.076-.12.115-.177.115-.047 0-.074-.025-.08-.074a.485.485 0 0 1 0-.083l.01-.12zm.014-.196a.319.319 0 0 0-.126-.027c-.059 0-.101.038-.127.113a.53.53 0 0 0-.033.239c.007.05.025.077.056.077.028 0 .064-.03.11-.089s.082-.126.112-.202l.008-.11zm.457.474c-.043 0-.08-.017-.113-.05s-.052-.075-.059-.125c-.012-.094.013-.18.073-.26s.134-.12.217-.12c.046 0 .085.016.119.049s.053.074.06.124a.343.343 0 0 1-.073.264.274.274 0 0 1-.224.118zm.05-.043c.049 0 .087-.03.116-.093s.038-.134.027-.216c-.014-.108-.054-.162-.12-.162-.046 0-.084.032-.113.096s-.038.136-.028.216c.013.106.053.16.118.16zm1.126-.103-.003.038c-.094.072-.178.108-.251.108-.046 0-.086-.016-.12-.049s-.052-.074-.059-.126c-.011-.092.013-.178.073-.26s.13-.12.21-.12a.103.103 0 0 1 .074.029c.02.02.033.045.037.076.008.063-.017.116-.076.161s-.131.068-.22.068l.003.022c.012.095.053.143.122.143.06 0 .13-.03.21-.09zm-.338-.105c.073-.006.127-.025.164-.057s.052-.073.046-.123c-.006-.05-.028-.075-.064-.075-.039 0-.073.026-.103.078s-.044.11-.043.177zm.784.09-.003.046c-.062.077-.12.115-.177.115-.047 0-.074-.025-.08-.074a.48.48 0 0 1 0-.082l.012-.17.002-.096c-.004-.028-.016-.041-.037-.041a.306.306 0 0 0-.077.017l.002-.03.23-.079-.018.156-.017.242-.002.072c.003.022.014.032.033.032.032 0 .076-.036.132-.107zm-.24-.48.023-.066.127-.09-.03.09-.12.067zm.687.363h-.009c-.069.185-.147.278-.235.278-.052 0-.082-.03-.09-.093a.346.346 0 0 1 0-.066l.016-.24.002-.073c-.003-.02-.014-.03-.033-.03-.032 0-.076.035-.132.107l.003-.045c.061-.077.12-.115.178-.115.047 0 .074.024.08.073a.485.485 0 0 1-.001.083l-.017.24a.272.272 0 0 0 0 .047c.003.026.014.04.033.04.024 0 .058-.03.1-.09s.079-.127.11-.206l.013-.175.103-.006-.017.15-.017.242-.001.073c.002.02.013.031.032.031.033 0 .077-.036.132-.108l-.003.046c-.061.076-.12.115-.177.115-.047 0-.074-.025-.08-.074a.47.47 0 0 1 0-.083l.01-.12zm.246.25.056-.067a.244.244 0 0 0 .135.047c.027 0 .05-.008.066-.022s.024-.031.021-.052c-.003-.023-.025-.055-.067-.095l-.051-.049c-.05-.048-.076-.087-.08-.12-.006-.044.01-.083.048-.117s.083-.052.137-.052c.03 0 .064.006.102.019l-.007.108h-.031v-.019c-.006-.044-.037-.066-.094-.066-.063 0-.092.025-.085.076.003.026.026.06.07.103l.045.045c.05.049.078.09.082.12.005.044-.013.083-.055.118s-.092.051-.151.051a.413.413 0 0 1-.14-.029zm.553.022.017-.151.016-.242.002-.073c-.002-.02-.013-.03-.032-.03-.032 0-.076.035-.132.107l.003-.045c.06-.077.12-.115.177-.115.047 0 .074.025.08.074a.477.477 0 0 1 0 .082l-.01.121h.008c.03-.085.067-.152.11-.202s.086-.075.127-.075c.022 0 .042.009.059.026s.027.039.03.064a.334.334 0 0 1 0 .068l-.008.12h.007c.026-.082.06-.149.103-.2s.084-.078.125-.078c.058 0 .09.03.099.092a.36.36 0 0 1 0 .067l-.017.239-.001.073c.002.02.013.031.032.031.033 0 .077-.036.132-.108l-.003.046c-.06.076-.12.115-.177.115-.047 0-.074-.025-.08-.074a.485.485 0 0 1 0-.083l.018-.239a.247.247 0 0 0 0-.047c-.003-.027-.015-.04-.035-.04-.057 0-.126.098-.209.294l-.014.177-.095.006.027-.389a.263.263 0 0 0 0-.047c-.003-.027-.015-.041-.034-.041-.025 0-.057.028-.097.086s-.078.128-.113.212l-.013.173-.102.006zm1.142.006c-.043 0-.08-.017-.114-.05s-.052-.075-.058-.125c-.012-.094.012-.18.073-.26s.133-.12.217-.12c.045 0 .085.016.118.049s.054.074.06.125a.343.343 0 0 1-.073.263.274.274 0 0 1-.223.118zm.05-.043c.048 0 .087-.03.115-.093s.038-.134.028-.216c-.014-.108-.054-.162-.12-.162-.046 0-.084.032-.113.096s-.039.136-.029.217c.014.105.054.158.119.158zm.73-.235h-.009c-.027.082-.062.15-.107.2s-.09.078-.135.078c-.07 0-.11-.043-.12-.13a.368.368 0 0 1 .027-.184.43.43 0 0 1 .11-.162c.032-.029.065-.048.1-.058s.086-.015.154-.015c.01-.065.025-.114.041-.148s.042-.066.076-.096a.3.3 0 0 1 .204-.076.41.41 0 0 1 .089.01l-.058.07a.28.28 0 0 0-.102-.026c-.052 0-.09.02-.11.057s-.037.11-.044.214l-.027.387-.003.072c.003.022.014.032.033.032.033 0 .077-.036.133-.107l-.004.045c-.061.077-.12.115-.177.115-.047 0-.074-.025-.08-.074a.485.485 0 0 1 0-.083l.01-.12zm.014-.195a.319.319 0 0 0-.125-.028c-.06 0-.102.038-.128.113a.53.53 0 0 0-.032.239c.006.051.025.077.055.077.028 0 .065-.03.11-.089s.082-.126.112-.202l.008-.11zm-7.468 1.868H4.87l.029-.036h.085l.01-.138.098-.025-.011.163h.184l-.035.043-.112-.006h-.04l-.024.334a.434.434 0 0 0 0 .073c.003.026.016.039.039.039.035 0 .08-.026.134-.078l-.003.045c-.055.062-.112.094-.17.094-.056 0-.088-.031-.095-.092a.463.463 0 0 1 0-.087l.023-.328zm.806.362-.003.037c-.094.072-.178.109-.25.109-.047 0-.087-.017-.12-.05s-.053-.074-.06-.125c-.011-.092.013-.178.073-.26s.13-.12.21-.12a.103.103 0 0 1 .074.028c.02.02.033.045.037.077.008.062-.017.116-.075.161s-.132.068-.22.068l.002.022c.012.095.053.142.123.142.06 0 .13-.03.209-.09zm-.337-.106c.072-.006.126-.025.163-.056s.053-.073.046-.124c-.006-.05-.027-.075-.064-.075-.039 0-.073.026-.103.078s-.044.111-.042.177zm.501.245.017-.15.017-.242.002-.073c-.003-.02-.013-.03-.033-.03-.032 0-.076.035-.132.106l.003-.045c.062-.076.12-.115.178-.115.047 0 .073.025.08.074a.477.477 0 0 1-.001.083l-.009.12h.007c.031-.084.068-.151.111-.202s.085-.075.127-.075c.022 0 .041.01.058.026s.028.04.03.065a.334.334 0 0 1 .001.068l-.008.119h.007c.026-.082.06-.148.102-.2s.085-.078.126-.078c.058 0 .09.031.098.092a.36.36 0 0 1 .001.068l-.017.238-.002.074c.003.02.014.03.033.03.032 0 .076-.035.132-.107l-.003.045c-.061.077-.12.115-.177.115-.048 0-.074-.024-.08-.073a.485.485 0 0 1 0-.084l.017-.238a.254.254 0 0 0 .001-.047c-.003-.027-.015-.04-.035-.04-.057 0-.127.097-.21.293l-.013.177-.095.006.027-.388a.263.263 0 0 0 0-.047c-.003-.028-.015-.042-.034-.042-.025 0-.057.029-.098.086s-.078.128-.112.212l-.014.173-.102.006zm.726.311.057-.07a.24.24 0 0 0 .107.025c.083 0 .13-.07.139-.207l.027-.379v-.096c-.003-.027-.015-.041-.036-.041a.305.305 0 0 0-.077.017l.002-.03.229-.079-.017.158-.009.12h.009c.026-.082.062-.15.107-.2s.09-.078.136-.078c.07 0 .11.044.12.13.014.1-.014.196-.082.286s-.146.135-.235.135a.569.569 0 0 1-.057-.006l-.016-.002c-.013.106-.047.186-.103.242s-.132.084-.225.084a.362.362 0 0 1-.076-.009zm.408-.386a.326.326 0 0 0 .126.027c.06 0 .102-.037.128-.112a.53.53 0 0 0 .032-.24c-.006-.05-.025-.076-.055-.076-.028 0-.064.03-.11.088s-.082.126-.113.202l-.008.111zm.673.082c-.042 0-.08-.017-.113-.05s-.052-.076-.059-.126c-.012-.093.013-.18.074-.26s.133-.12.217-.12c.045 0 .084.017.118.05s.053.074.06.124a.343.343 0 0 1-.073.264.274.274 0 0 1-.223.118zm.05-.043c.049 0 .087-.031.116-.093s.038-.134.027-.216c-.013-.108-.053-.162-.119-.162-.047 0-.084.032-.114.096s-.038.136-.028.216c.014.106.053.159.119.159zm.422.036.017-.15.017-.24a.314.314 0 0 0 0-.062c-.004-.028-.016-.042-.035-.042-.035 0-.08.037-.134.11l.003-.043c.065-.081.125-.122.18-.122.047 0 .074.027.081.08a.42.42 0 0 1 .002.08l-.009.118h.007c.028-.082.065-.148.112-.2s.091-.077.135-.077c.023 0 .044.005.063.015l-.053.088a.107.107 0 0 0-.052-.02c-.063 0-.136.094-.218.28l-.013.18-.102.005zm1.172-.154-.003.046c-.062.076-.12.115-.178.115-.046 0-.073-.025-.08-.074a.48.48 0 0 1 .001-.082l.012-.17.002-.097c-.004-.027-.016-.04-.037-.04a.306.306 0 0 0-.077.016l.002-.03.229-.078-.017.156-.017.242-.002.072c.003.021.014.032.033.032.032 0 .076-.036.132-.108zm-.241-.48.024-.066.127-.09-.03.09-.121.066zm.337.634.016-.15.017-.242.002-.073c-.002-.02-.013-.03-.033-.03-.032 0-.076.035-.132.106l.003-.045c.062-.076.12-.114.178-.114.047 0 .074.024.08.073a.488.488 0 0 1 0 .083l-.01.12h.008c.03-.083.067-.15.112-.2s.09-.076.134-.076c.054 0 .084.03.092.088a.36.36 0 0 1 0 .07l-.016.24-.002.073c.002.02.013.03.033.03.032 0 .076-.035.132-.107l-.003.046c-.062.076-.12.115-.178.115-.047 0-.074-.025-.08-.074a.485.485 0 0 1 .001-.083l.017-.24a.23.23 0 0 0 0-.047c-.004-.026-.015-.04-.035-.04-.062 0-.136.1-.22.297l-.014.174-.102.006zm1.088-.14-.003.038c-.098.072-.18.109-.249.109-.047 0-.087-.016-.12-.048s-.053-.075-.06-.127c-.011-.095.013-.182.075-.261s.135-.12.221-.12c.038 0 .077.009.116.025l-.016.126h-.03v-.007a.175.175 0 0 0 0-.034c-.005-.045-.039-.067-.1-.067-.057 0-.1.03-.131.091s-.04.139-.028.231c.012.089.05.133.116.133.063 0 .132-.03.209-.09zm.453-.014-.003.046c-.061.076-.12.115-.177.115-.047 0-.074-.025-.08-.074a.48.48 0 0 1 0-.082l.012-.17.002-.097c-.004-.027-.016-.04-.037-.04a.306.306 0 0 0-.077.016l.002-.03.23-.078-.018.156-.017.242-.002.072c.003.021.014.032.033.032.032 0 .076-.036.132-.108zm-.24-.48.023-.066.127-.09-.03.09-.12.066zm.65.363h-.008c-.027.082-.063.149-.108.2s-.09.078-.135.078c-.069 0-.11-.044-.12-.13a.438.438 0 0 1 .137-.346c.032-.03.065-.049.1-.059s.086-.015.154-.015c.011-.064.025-.113.041-.147s.042-.066.076-.096a.3.3 0 0 1 .204-.076.37.37 0 0 1 .09.01l-.059.07a.28.28 0 0 0-.102-.026c-.052 0-.089.019-.11.057s-.036.11-.044.213l-.027.388-.002.072c.002.021.013.032.032.032.033 0 .077-.036.133-.108l-.004.046c-.06.076-.12.115-.177.115-.047 0-.074-.025-.08-.074a.485.485 0 0 1 .001-.083l.009-.121zm.015-.196a.319.319 0 0 0-.126-.027c-.06 0-.102.037-.128.112a.53.53 0 0 0-.032.24c.007.05.025.076.055.076.028 0 .065-.03.11-.088s.083-.127.113-.202l.008-.11zm.621.313-.003.046c-.061.076-.12.115-.177.115-.047 0-.073-.025-.08-.074a.48.48 0 0 1 0-.082l.013-.17.001-.097c-.003-.027-.016-.04-.037-.04a.306.306 0 0 0-.076.016l.002-.03.229-.078-.017.156-.017.242-.002.072c.002.021.013.032.033.032.032 0 .076-.036.131-.108zm-.24-.48.024-.066.126-.09-.03.09-.12.067zm.65.363h-.008c-.027.082-.063.149-.108.2s-.09.078-.134.078c-.07 0-.11-.044-.12-.13a.368.368 0 0 1 .026-.184.43.43 0 0 1 .11-.162c.032-.03.066-.049.1-.059s.086-.014.154-.014c.011-.065.025-.114.042-.148s.041-.066.075-.096a.3.3 0 0 1 .204-.076c.033 0 .062.003.09.01l-.058.07a.28.28 0 0 0-.102-.026c-.053 0-.09.019-.11.057s-.037.11-.044.213l-.028.388-.002.072c.003.021.014.032.033.032.032 0 .077-.036.132-.108l-.003.046c-.061.076-.12.115-.177.115-.047 0-.074-.025-.08-.074a.485.485 0 0 1 0-.083l.01-.121zm.015-.196a.319.319 0 0 0-.126-.027c-.059 0-.101.038-.127.112a.53.53 0 0 0-.033.24c.007.05.025.076.056.076.028 0 .064-.03.11-.088s.082-.126.112-.202l.008-.11zm.269.196.011-.072h.223l-.011.072h-.223zm-7.23 1.902h-.01c-.068.186-.147.278-.235.278-.052 0-.082-.03-.09-.092a.346.346 0 0 1 0-.066l.016-.24.002-.074c-.003-.02-.014-.03-.033-.03-.032 0-.076.036-.132.107l.003-.045c.061-.077.12-.115.178-.115.047 0 .074.024.08.073a.485.485 0 0 1-.001.084l-.017.24a.272.272 0 0 0 0 .046c.003.026.014.04.033.04.025 0 .058-.03.1-.09s.08-.127.11-.206l.013-.175.103-.006-.017.15-.016.242-.002.073c.002.021.013.031.032.031.033 0 .077-.036.132-.107l-.003.045c-.061.077-.12.115-.177.115-.047 0-.074-.025-.08-.074a.47.47 0 0 1 0-.083l.01-.12zm.347.272.017-.15.017-.242.002-.074c-.003-.02-.014-.03-.033-.03-.032 0-.076.036-.132.107l.003-.045c.061-.076.12-.115.177-.115.047 0 .074.025.08.073a.488.488 0 0 1 0 .084l-.009.12h.007c.03-.083.068-.15.113-.2s.09-.077.134-.077c.053 0 .084.03.091.09a.361.361 0 0 1 0 .07l-.016.238-.002.073c.003.021.014.031.033.031.033 0 .077-.036.132-.107l-.003.045c-.061.077-.12.115-.178.115-.046 0-.073-.024-.08-.074a.485.485 0 0 1 .002-.083l.016-.24a.23.23 0 0 0 0-.046c-.003-.027-.015-.04-.034-.04-.062 0-.136.099-.221.297l-.014.174-.102.006zm.739-.5h-.112l.029-.037h.085l.01-.138.098-.025-.011.163h.184l-.035.043-.112-.007h-.04l-.024.335a.434.434 0 0 0 0 .073c.003.026.016.039.039.039.035 0 .08-.027.134-.079l-.003.045c-.055.063-.112.094-.17.094-.056 0-.088-.03-.095-.092a.463.463 0 0 1 0-.087l.023-.328zm1.112.228H7.74c-.069.186-.147.278-.235.278-.053 0-.083-.03-.09-.092a.346.346 0 0 1-.001-.066l.017-.24.001-.074c-.002-.02-.013-.03-.032-.03-.032 0-.076.036-.132.107l.003-.045c.06-.077.12-.115.177-.115.047 0 .074.024.08.073a.485.485 0 0 1 0 .084l-.018.24a.272.272 0 0 0 0 .046c.003.026.014.04.034.04.024 0 .057-.03.1-.09s.079-.127.11-.206l.013-.175.103-.006-.017.15-.017.242-.002.073c.003.021.014.031.033.031.032 0 .076-.036.132-.107l-.003.045c-.062.077-.12.115-.178.115-.047 0-.074-.025-.08-.074a.47.47 0 0 1 .001-.083l.01-.12zm.374-.229H8.01l.03-.036h.084l.01-.138.099-.025-.012.163h.185l-.035.043-.113-.007h-.04l-.023.335a.434.434 0 0 0 0 .073c.002.026.015.039.038.039.035 0 .08-.027.134-.079l-.003.045c-.055.063-.112.094-.17.094-.055 0-.087-.03-.095-.092a.463.463 0 0 1 0-.087l.023-.328zm1.003.344-.003.045c-.067.079-.128.118-.183.118-.047 0-.073-.025-.08-.075a.437.437 0 0 1 0-.082l.024-.338c.008-.118.04-.21.098-.275s.131-.099.224-.099a.363.363 0 0 1 .09.01l-.058.07a.266.266 0 0 0-.101-.025c-.052 0-.089.018-.11.056s-.036.11-.043.215l-.027.386-.002.074c.003.02.013.03.033.03.022 0 .06-.029.115-.087l.023-.023zm.414-.115h-.01c-.025.082-.061.15-.106.2s-.09.078-.136.078c-.069 0-.109-.043-.12-.129a.389.389 0 0 1 .078-.279.312.312 0 0 1 .268-.14l.147.005-.016.145-.017.241-.002.074c.003.02.014.03.033.03.033 0 .077-.035.132-.107l-.003.045c-.062.077-.12.115-.177.115-.048 0-.075-.024-.08-.074a.485.485 0 0 1 0-.083l.009-.12zm.014-.195a.323.323 0 0 0-.126-.027c-.059 0-.101.037-.127.112a.534.534 0 0 0-.032.24c.006.05.024.076.054.076.029 0 .065-.03.11-.088a.839.839 0 0 0 .113-.202l.008-.111zm.298.461.017-.145.024-.338c.008-.118.04-.21.097-.275s.132-.099.225-.099a.367.367 0 0 1 .09.01l-.06.07a.266.266 0 0 0-.1-.025c-.052 0-.089.018-.11.056s-.035.11-.042.215l-.02.266h.01c.026-.083.062-.15.107-.2s.09-.078.136-.078c.069 0 .109.043.12.13a.39.39 0 0 1-.077.279.309.309 0 0 1-.266.14 1.657 1.657 0 0 1-.064-.001l-.087-.005zm.108-.069a.323.323 0 0 0 .126.027c.059 0 .101-.038.127-.113a.53.53 0 0 0 .032-.239c-.006-.05-.024-.076-.055-.076-.028 0-.064.029-.109.088s-.083.126-.113.202l-.008.111zm.667.081c-.043 0-.08-.016-.113-.05s-.053-.075-.059-.125c-.012-.094.012-.18.073-.26s.133-.12.217-.12a.164.164 0 0 1 .118.05.205.205 0 0 1 .06.124.343.343 0 0 1-.072.264.274.274 0 0 1-.224.117zm.05-.042c.049 0 .087-.031.116-.093s.038-.135.027-.217c-.014-.108-.054-.162-.12-.162-.046 0-.084.032-.113.096s-.039.137-.028.217c.013.106.053.159.118.159zm.422.036.017-.15.017-.24a.314.314 0 0 0 0-.062c-.005-.028-.016-.042-.036-.042-.034 0-.079.036-.134.11l.004-.043c.064-.082.125-.122.18-.122.047 0 .074.027.08.08a.398.398 0 0 1 .002.08l-.008.118h.006c.028-.082.066-.149.112-.2s.092-.078.136-.078c.023 0 .044.005.063.015l-.054.089a.107.107 0 0 0-.051-.02c-.064 0-.136.094-.218.28l-.013.18-.103.005zm.934-.14-.002.038c-.095.072-.178.108-.251.108a.163.163 0 0 1-.12-.048.207.207 0 0 1-.059-.126c-.012-.092.013-.179.073-.26s.13-.121.21-.121a.103.103 0 0 1 .074.03c.02.019.032.044.036.075.008.063-.017.117-.075.162s-.131.067-.22.067l.002.022c.012.096.053.143.123.143.06 0 .13-.03.21-.09zm-.337-.105c.072-.006.127-.025.164-.057s.052-.072.046-.123c-.007-.05-.028-.075-.064-.075-.04 0-.074.026-.104.078s-.044.111-.042.177zm1.211.106-.002.037c-.094.072-.178.108-.251.108a.163.163 0 0 1-.12-.048.207.207 0 0 1-.059-.126c-.011-.092.013-.179.073-.26s.13-.121.21-.121a.103.103 0 0 1 .074.03c.02.019.033.044.037.075.008.063-.018.117-.076.162s-.131.067-.22.067l.002.022c.013.096.054.143.123.143.06 0 .13-.03.21-.09zm-.337-.106c.073-.006.127-.025.164-.057s.052-.072.046-.123c-.006-.05-.028-.075-.064-.075-.04 0-.073.026-.103.078s-.044.111-.043.177zm.529-.256h-.112l.029-.036h.085l.01-.138.098-.025-.011.163h.184l-.034.043-.113-.007h-.04l-.023.335a.434.434 0 0 0-.001.073c.003.026.016.039.039.039.035 0 .08-.026.134-.079l-.003.045c-.055.063-.112.094-.17.094-.056 0-.087-.03-.095-.092a.463.463 0 0 1 0-.087l.023-.328zm-7.033 2.132h-.008c-.027.082-.063.15-.108.2s-.09.078-.135.078c-.069 0-.11-.043-.12-.13a.438.438 0 0 1 .137-.346c.032-.029.065-.048.1-.058s.086-.015.154-.015c.01-.065.025-.114.041-.148s.042-.066.076-.096a.3.3 0 0 1 .204-.076.367.367 0 0 1 .09.01l-.059.07a.28.28 0 0 0-.102-.026c-.052 0-.089.02-.11.057s-.036.11-.044.214l-.027.387-.003.072c.003.021.014.032.033.032.033 0 .077-.036.133-.107l-.004.045c-.06.077-.12.115-.177.115-.047 0-.074-.025-.08-.074a.485.485 0 0 1 .001-.083l.009-.12zm.014-.195a.319.319 0 0 0-.125-.028c-.06 0-.102.038-.128.113a.53.53 0 0 0-.032.239c.006.05.025.077.055.077.028 0 .065-.03.11-.089s.083-.126.113-.202l.008-.11zm.458.473c-.043 0-.08-.017-.114-.05s-.052-.075-.058-.125c-.012-.094.012-.18.073-.26s.133-.12.217-.12a.164.164 0 0 1 .118.049.205.205 0 0 1 .06.125.343.343 0 0 1-.073.263.274.274 0 0 1-.223.118zm.05-.043c.048 0 .087-.03.115-.093s.038-.134.028-.216c-.014-.108-.054-.162-.12-.162-.046 0-.084.032-.113.096s-.039.136-.029.216c.014.106.053.16.119.16zm.657-.12-.003.045c-.067.079-.128.118-.184.118-.046 0-.072-.025-.079-.075a.437.437 0 0 1 0-.083l.024-.337c.008-.118.04-.21.097-.275s.132-.099.225-.099c.033 0 .062.003.09.01l-.059.07a.266.266 0 0 0-.1-.026c-.053 0-.09.02-.11.057s-.036.11-.043.215l-.028.386-.001.073c.002.02.013.031.032.031.022 0 .06-.029.116-.087l.023-.023zm.216.163c-.043 0-.08-.017-.113-.05s-.053-.075-.06-.125c-.011-.094.013-.18.074-.26s.133-.12.217-.12a.164.164 0 0 1 .118.049.205.205 0 0 1 .06.125.343.343 0 0 1-.073.263.274.274 0 0 1-.223.118zm.05-.043c.048 0 .087-.03.116-.093s.037-.134.027-.216c-.014-.108-.054-.162-.12-.162-.046 0-.084.032-.113.096s-.039.136-.028.216c.013.106.053.16.118.16zm.422.037.017-.151.017-.24a.314.314 0 0 0-.001-.062c-.004-.028-.015-.042-.035-.042-.034 0-.079.037-.134.11l.003-.043c.065-.08.125-.121.18-.121.048 0 .075.026.082.08a.398.398 0 0 1 0 .08l-.007.117h.006c.028-.081.066-.148.112-.2s.092-.077.136-.077a.14.14 0 0 1 .063.015l-.054.088a.107.107 0 0 0-.051-.019c-.064 0-.137.093-.218.28l-.013.179-.103.006zm.934-.14-.002.038c-.095.072-.179.108-.252.108a.163.163 0 0 1-.119-.049.207.207 0 0 1-.059-.126c-.012-.092.012-.178.072-.259s.13-.121.21-.121a.103.103 0 0 1 .074.029c.02.02.033.045.037.076.008.063-.017.117-.075.162s-.132.067-.22.067l.002.022c.012.095.053.143.123.143.06 0 .13-.03.21-.09zm-.337-.105c.072-.006.127-.025.164-.057s.052-.073.046-.123c-.007-.05-.028-.075-.064-.075-.04 0-.074.026-.104.078s-.044.11-.042.177zm.834.245.017-.151.017-.242.002-.073c-.003-.02-.014-.03-.033-.03-.032 0-.076.035-.132.107l.003-.045c.061-.077.12-.115.178-.115.046 0 .073.025.08.074a.477.477 0 0 1-.001.082l-.009.121h.007c.031-.085.068-.152.11-.202s.086-.075.128-.075c.022 0 .041.009.058.026s.027.039.03.064a.334.334 0 0 1 .001.068l-.008.12h.007c.025-.082.06-.149.102-.2s.085-.078.126-.078c.057 0 .09.03.098.092a.36.36 0 0 1 0 .067l-.016.239-.002.073c.003.02.014.031.033.031.032 0 .076-.036.132-.108l-.003.046c-.061.076-.12.115-.177.115-.048 0-.074-.025-.08-.074a.485.485 0 0 1 0-.083l.017-.239a.254.254 0 0 0 .001-.047c-.003-.027-.015-.04-.036-.04-.056 0-.126.098-.208.294l-.014.177-.095.006.027-.389a.263.263 0 0 0 0-.047c-.004-.027-.015-.041-.035-.041-.024 0-.057.028-.097.086s-.078.128-.112.212l-.014.173-.102.006zm1.34-.272h-.009c-.026.082-.062.149-.107.2s-.09.078-.136.078c-.069 0-.109-.043-.12-.13a.389.389 0 0 1 .078-.278.312.312 0 0 1 .268-.141l.147.006-.016.144-.017.242-.002.073c.003.02.014.031.033.031.033 0 .077-.036.132-.107l-.003.045c-.061.077-.12.115-.177.115-.048 0-.074-.025-.08-.074a.485.485 0 0 1 0-.083l.009-.12zm.014-.195a.323.323 0 0 0-.125-.028c-.06 0-.102.038-.128.113a.534.534 0 0 0-.032.239c.006.051.025.077.055.077.028 0 .064-.03.11-.089a.839.839 0 0 0 .112-.201l.008-.111zm.359.453c-.042-.02-.067-.059-.074-.118a.378.378 0 0 1 .081-.28.313.313 0 0 1 .267-.131l.137.006-.016.144-.009.114-.007.132c-.003.116-.01.196-.023.24s-.039.09-.08.132a.293.293 0 0 1-.22.094c-.058 0-.106-.01-.145-.033s-.06-.052-.064-.087c-.01-.072.041-.143.153-.213zm.303-.452a.286.286 0 0 0-.12-.029.116.116 0 0 0-.103.058c-.02.031-.036.076-.047.136s-.015.111-.01.153c.006.046.024.07.053.07.064 0 .137-.093.22-.279l.007-.11zm-.014.194h-.008c-.024.077-.058.138-.1.185s-.09.074-.142.082c-.077.06-.113.114-.107.164.005.033.024.06.059.084s.074.034.12.034c.058 0 .101-.022.13-.068s.042-.117.044-.215l.004-.266zm.344-.194c-.003-.02-.014-.03-.033-.03-.032 0-.076.035-.132.107l.003-.045c.061-.077.12-.115.177-.115.047 0 .074.024.08.073.64.196-.108.468-.095.01z"/>
  <g transform="translate(1.901 6.966) scale(.0428)">
    <use fill="#fff" class="B" xlink:href="#R"/>
    <g class="B" mask="url(#D)" transform="translate(222.646 -71.724) scale(.80424)">
      <path fill="url(#G)" d="M102.53 182.726c-4.95 50.205 9.192 66.468 9.192 66.468-25.119 26.937-43.098 58.635-62.933 89.095-8.485-49.969 9.428-101.823 53.74-155.563z"/>
      <path fill="url(#H)" d="M158.392 199.696c-6.929-26.399-7.729-52.797-11.314-79.196-37.982 32.936-55.966 68.899-37.477 131.522 15.691-17.442 31.271-34.884 48.79-52.326z"/>
      <path fill="url(#I)" d="M156.978 201.818c-12.306-72.214-6.796-106.441 79.903-136.472-6.793 26.016-8.151 43.551-4.243 65.054-26.375 22.651-51.148 46.904-75.66 71.418z"/>
      <path fill="url(#J)" d="M226.274 133.935C219.597 39.28 289.888 30.979 358.503 20.798c-49.672 44.241-93.87 82.095-132.229 113.137z"/>
      <path fill="url(#K)" d="M185.616 174.241c101.788 4.915 81.876-19.409 141.775-82.024-32.95 11.728-47.701 10.716-62.225 9.546l-79.55 72.478z"/>
      <path fill="url(#L)" d="M260.215 108.48c80.89-18.49 155.809-32.256 219.203-98.995-40.923-1.255-81.58-8.365-123.39 9.899l-95.813 89.095z"/>
      <path fill="url(#M)" d="M135.765 226.566c15.745 8.548 38.23 19.343 48.79 26.163-71.575 72.852-93.918 66.414-138.593 90.51 32.901-48.33 53.689-80.877 89.803-116.673z"/>
      <path fill="url(#N)" d="M135.057 226.213c58.992 33.622 76.61 33.611 116.112-52.654-33.102-8.658-26.695 11.761-71.89 10.322-14.085 12.079-30.78 30.5-44.222 42.333z"/>
    </g>
    <g class="C D">
      <use fill="none" stroke-width="2.25" xlink:href="#R"/>
      <path fill="#9d9d9d" stroke-width="2.249" d="M449.038-1.555c-95.208 75.763-174.131 155.818-216.993 244.89h2.664s5.228-7.64 9.048-10.857 15.482-11.058 15.482-11.058 10.039-30.463 30.796-60.034 49.76-57.721 55.731-63.977l18.527-19.746" class="B F"/>
    </g>
    <path d="m20.5 356 30 21.5-64 37.5" class="B" mask="url(#C)" transform="translate(222.646 -71.724) scale(.80424)"/>
  </g>
</svg>
